# xmcd
# Copyright (C) 1995-1998 Ti Kan
#
# Track frame offsets:
#       150
#       4350
#       12010
#       20035
#       27103
#       34660
#       45150
#       57513
#       62588
#       68813
#       78208
#       88308
#       91893
#       101528
#       110145
#
# Disc length: 1585 seconds
#
# Revision: 0
# Processed by: cddbd v1.5.2PL0 Copyright (c) Steve Scherf et al.
# Submitted via: CD-Import v1.0
#
DISCID=b6062f0f
DTITLE=Bad Religion - No Control
DYEAR=1989
DGENRE=
TTITLE0=Change Of Ideas
TTITLE1=Big Bang
TTITLE2=No Control
TTITLE3=Sometimes I Feel Like
TTITLE4=Automatic Man
TTITLE5=I Want To Conquer The World
TTITLE6=Sanity
TTITLE7=Henchman
TTITLE8=It Must Feel Pretty Appealing
TTITLE9=You
TTITLE10=Progress
TTITLE11=I Want Something More
TTITLE12=Anxiety
TTITLE13=Billy
TTITLE14=The World Won't Stop
EXTD=
EXTT0=
EXTT1=
EXTT2=
EXTT3=
EXTT4=
EXTT5=
EXTT6=
EXTT7=
EXTT8=
EXTT9=
EXTT10=
EXTT11=
EXTT12=
EXTT13=
EXTT14=
PLAYORDER=
